<svg id="Calque_1" data-name="Calque 1" xmlns="http://www.w3.org/2000/svg" viewBox="0 0 73.71 73.71"><defs><style>.cls-1,.cls-3{fill:none;}.cls-2{fill:#f1a91d;}.cls-3{stroke:#f1a91d;stroke-miterlimit:10;stroke-width:2.82px;}</style></defs><title>ref</title><circle class="cls-1" cx="37.23" cy="36.85" r="31.48"/><path class="cls-2" d="M20.08,54.87h5.62a2,2,0,0,1,2,2V69.6a0,0,0,0,1,0,0H20.08a0,0,0,0,1,0,0V54.87A0,0,0,0,1,20.08,54.87Z"/><path class="cls-2" d="M28.65,50.92H34a2.28,2.28,0,0,1,2.28,2.28V69.6a0,0,0,0,1,0,0H28.65a0,0,0,0,1,0,0V50.92A0,0,0,0,1,28.65,50.92Z"/><path class="cls-2" d="M54.38,38.68h5.06A2.58,2.58,0,0,1,62,41.26V62.65a0,0,0,0,1,0,0H54.38a0,0,0,0,1,0,0v-24A0,0,0,0,1,54.38,38.68Z"/><path class="cls-2" d="M45.81,42.4h5a2.69,2.69,0,0,1,2.69,2.69V68.33a0,0,0,0,1,0,0H45.81a0,0,0,0,1,0,0V42.4A0,0,0,0,1,45.81,42.4Z"/><path class="cls-2" d="M37.23,46.75h5.12a2.52,2.52,0,0,1,2.52,2.52V69.6a0,0,0,0,1,0,0H37.23a0,0,0,0,1,0,0V46.75A0,0,0,0,1,37.23,46.75Z"/><path class="cls-2" d="M450.61,276.09a36.85,36.85,0,1,0-7.8,51.53A36.86,36.86,0,0,0,450.61,276.09Zm-11.29,46.79a31,31,0,1,1,6.55-43.3A31,31,0,0,1,439.32,322.88Z" transform="translate(-384.09 -261.1)"/><line class="cls-3" x1="40.06" y1="30.61" x2="17.24" y2="30.61"/><line class="cls-3" x1="16.08" y1="22.03" x2="40.71" y2="22.03"/><ellipse class="cls-3" cx="28.65" cy="26.32" rx="6.28" ry="12.01"/><ellipse class="cls-3" cx="28.65" cy="26.32" rx="12.57" ry="12.36"/></svg>