<svg id="Calque_1" data-name="Calque 1" xmlns="http://www.w3.org/2000/svg" viewBox="0 0 81.45 71.86"><defs><style>.cls-1{fill:none;stroke:#f1a91d;stroke-miterlimit:10;stroke-width:2.89px;}.cls-2{fill:#f1a91d;}</style></defs><title>website</title><rect class="cls-1" x="1.45" y="1.45" width="78.55" height="56.41" rx="7.62" ry="7.62"/><rect class="cls-2" x="36.95" y="56.24" width="9.64" height="11.47"/><rect class="cls-2" x="24.13" y="67.71" width="35.29" height="4.15" rx="1.4" ry="1.4"/><path class="cls-2" d="M418.16,273.69" transform="translate(-380.25 -262.02)"/><rect class="cls-2" x="2.02" y="53.14" width="77.25" height="3.79" rx="1.9" ry="1.9"/><rect class="cls-2" x="10.1" y="24.31" width="28.05" height="1.56" rx="0.78" ry="0.78"/><rect class="cls-2" x="10.1" y="20.74" width="28.05" height="1.56" rx="0.78" ry="0.78"/><rect class="cls-2" x="10.1" y="17.21" width="28.05" height="1.56" rx="0.78" ry="0.78"/><rect class="cls-2" x="10.1" y="13.7" width="28.05" height="1.56" rx="0.78" ry="0.78"/><rect class="cls-2" x="43.75" y="16.16" width="26.92" height="19.39" rx="2.89" ry="2.89"/><rect class="cls-2" x="10.1" y="42.09" width="28.05" height="1.56" rx="0.78" ry="0.78"/><rect class="cls-2" x="10.1" y="38.52" width="28.05" height="1.56" rx="0.78" ry="0.78"/><rect class="cls-2" x="10.1" y="34.99" width="28.05" height="1.56" rx="0.78" ry="0.78"/><rect class="cls-2" x="10.1" y="31.49" width="28.05" height="1.56" rx="0.78" ry="0.78"/><rect class="cls-2" x="10.1" y="27.79" width="28.05" height="1.56" rx="0.78" ry="0.78"/></svg>