<?xml version="1.0" encoding="utf-8"?>
<!-- Generator: Adobe Illustrator 22.0.1, SVG Export Plug-In . SVG Version: 6.00 Build 0)  -->
<svg version="1.1" xmlns="http://www.w3.org/2000/svg" xmlns:xlink="http://www.w3.org/1999/xlink" x="0px" y="0px"
	 viewBox="0 0 1190.6 841.9" style="enable-background:new 0 0 1190.6 841.9;" xml:space="preserve">
<style type="text/css">
	.st0{fill:#100F19;}
	.st1{fill:#100F19;stroke:#1B3C96;stroke-width:2.0782;stroke-miterlimit:10;}
</style>
<g id="Calque_2">
	<rect class="st0" width="1190.6" height="841.9"/>
</g>
<g id="Calque_1">
	<g>
		<g>
			<path class="st1" d="M1189.6,729.7c-3.9,4.7-8.2,9-11.6,14.3c-14.5,22.6-20.2,48.2-16.4,77c0.9,6.6,2.2,13.1,3.3,19.6
				 M985.2,113.4c-0.5-8.2-0.6-16.1-1.6-23.8c-1.4-11-7.4-16.8-16.3-17.3c-15.5-0.8-30.8,1.4-45.6,6.8c-22.2,8-44.1,17.1-66,26.2
				c-12.2,5.1-24.2,11.1-35.3,19.6c-23.7,18-36.5,43.9-36.4,79.1c0.1,18.6,5.6,34.2,15.8,47.3c9.5,12.2,21.1,20.5,33.5,27.3
				c9.7,5.3,19.7,9.2,30.5,8.6c8.3-0.5,15.4-4.5,20.5-12.4c4.1-6.3,7.4-13.3,10.5-20.4c4.6-10.6,8.5-21.8,13.1-32.5
				c7.1-16.4,16.3-30.7,29.7-39.5c8.3-5.4,17.1-9.8,25.9-13.6c11.8-5.1,18.6-14.6,19.9-30.2C984.2,130.1,984.6,121.6,985.2,113.4z
				 M572.7,602.4c-0.4-6.3-0.6-12.6-1.2-18.9c-2.1-21-6.7-41.2-12.3-61.1c-4-14-8.5-27.7-15.4-40c-8.9-15.8-20.8-23.9-36.4-24.2
				c-13.3-0.2-26,3-38.4,8.8c-24.5,11.5-42.8,31.6-53.2,62c-5.6,16.4-6.2,32.9,3.1,47.7c4.8,7.6,10.3,14.8,16.2,21.1
				c8.7,9.2,18,17.7,27.2,26.1c12.5,11.3,25.7,21.2,40,28.5c11.9,6.1,24.1,10.6,37.3,8.3c12.4-2.2,22-9.4,27.7-24
				C571.5,625.7,572.6,614.3,572.7,602.4z M1068.4,309.2c-0.6-6.7-1.2-17.7-2.8-28.4c-3.5-24.4-11.2-46.4-25.8-63.8
				c-5.2-6.2-11.1-11.2-17.7-14.6c-11.4-5.8-19.5-0.6-22.5,14.2c-0.8,3.7-1.4,7.5-1.8,11.4c-1.4,13.5-2.7,27.1-4.1,40.7
				c-2.2,20.8-7.3,40.7-12,60.8c-2.5,10.8-4.6,21.8-3.5,33.2c1.8,19.8,9.3,35.8,21.7,48.3c10.7,10.8,23.3,13,33.6,5.7
				c6.7-4.7,11.8-11.5,16.1-19.5C1063,371.8,1067.7,343.3,1068.4,309.2z M165.7,738.6c-0.3,0.1-0.6,0.2-0.9,0.2
				c1.4,8.2,2.3,16.5,4.2,24.4c4.4,18.3,12.6,34.1,22.3,48.6c4.7,6.9,9.4,13.7,16,17.9c4.3,2.7,8.4,2.2,11.6-2.2
				c2.6-3.6,5.1-7.5,7-11.7c5.7-12.9,9.1-26.8,11.8-41c3.2-17,5.5-34.1,2.9-51.7c-1.6-10.6-4.7-20.4-12-27
				c-8.4-7.6-17.8-9.5-27.9-7.6c-11,2.1-20.4,7.6-27.4,18.9C167.6,716.6,165.5,727.1,165.7,738.6z"/>
			<path class="st1" d="M75.4,840.6c-4.5-23.3-8.8-46.7-13.6-70c-7-34-16.8-66.7-29.9-97.8c-2.4-5.6-4.9-11.1-7-16.8
				c-6.8-18.3-5.9-27.5,10.5-38.8c6.1-4.2,12.4-8.3,18.4-12.7c9.5-6.8,17.1-16.2,23.1-27.5c7.5-13.9,14.6-28.2,22.1-42.1
				c9.6-17.7,20.3-34.2,33-48.5c8.7-9.8,18.1-18.7,27-28.2c6.2-6.6,12.2-13.7,13-24.5c0.4-4.6-0.3-9.5-1.4-14
				c-2.9-12.5-9-22.9-15.4-32.8c-10.7-16.6-22-32.5-32.3-49.3c-9.4-15.3-15.9-32.7-17.7-52.2c-1.1-12.4,0-24.7,3-36.7
				c4.9-19.7,12.8-37.5,21.5-54.8c6.1-12.1,12.4-24.1,19.3-35.4c8.4-13.7,19.9-21.7,33.7-23.2c11.6-1.3,23.2-1.6,34.8-2.5
				c18-1.4,35.8-5.2,53.5-9.5c7.8-1.9,15.9-2.7,23.9-3.5c11.2-1.1,20.4,8.5,24.3,21.4c7.2,23.9,2.9,45.5-9,65.1
				c-6.7,11.1-14.2,21.4-21.6,31.8c-10.3,14.7-20.1,29.8-27.2,47.3c-5.3,13.1-8.8,26.9-8.6,42c0.3,16,6,28.2,15.9,37.5
				c10.1,9.5,22,13.4,34.2,15.6c17.2,3.1,34.3,3.5,51.3-1.9c16.7-5.3,27.9-18.5,34.8-38c7.2-20.4,10.1-42.2,13.7-63.8
				c2.5-15.3,5.3-30.5,12-44.1c6.3-12.8,15-22.2,25.3-29.4c17.7-12.4,36.9-17.2,56.9-15.2c16.3,1.6,32,6.5,46.1,17.3
				c5.9,4.5,11,10.2,13.2,18.8c2,7.6,2,15.5,0,22.9c-3.6,14-7.3,28-12.1,41.4c-5.3,14.9-11.4,29.6-18.1,43.6
				c-13.8,29-34.4,48-59.3,59.7c-11.7,5.5-23.6,10.2-35.3,15.4c-10.9,4.8-21.7,10.4-30.4,20.3c-5.3,6.1-10.3,12.6-15,19.4
				c-9.4,13.5-18.3,27.6-30,38.3c-10.3,9.3-21.8,15.2-34.3,17.5c-11.6,2.1-23.3,3-35,4.9c-5.8,1-11.6,2.4-17.1,4.8
				c-7.8,3.4-11.5,11.8-13.6,21.2c-2.7,11.8-4.7,23.8-7.6,35.5c-4.3,17.1-13.2,29.4-25.9,37.7c-12.9,8.4-27,12.7-40.8,17.8
				c-14.6,5.4-29.3,10.7-43.6,17.2c-12.3,5.6-22.4,15.5-28,31c-3.8,10.7-5.4,22.2-5.8,33.9c-1,28.6,2.8,56.6,6.5,84.6
				c2.1,16.4,4.6,32.8,4.1,49.6"/>
			<path class="st1" d="M305,840.6c-2.1-16.9-4.5-33.8-6.1-50.9c-1.1-12.1-1.6-24.5-1.2-36.7c0.6-21.2,2.6-42.2,10.5-61.6
				c6-14.9,15.3-25.5,27.3-32.4c23.9-13.8,48.5-14,73.3-4.5c17.9,6.9,34.5,17.7,51,28.5c18.7,12.1,37.4,24.3,57.4,32.7
				c13.8,5.8,28.1,9.7,42.7,9.2c13.3-0.4,26.1-3.9,37.8-12.6c13.9-10.3,22-25.4,24.2-45.3c1.7-15.4,0.9-30.7-1.6-45.8
				c-5.3-33-11.1-65.9-16.5-98.9c-3.5-21.8-5.7-43.9-4.7-66.1c1.1-26.8,8.2-50.6,23.7-69.9c12.8-15.8,27.2-28.5,44-36.5
				c10-4.8,20.2-6.6,30.2,0.2c7.1,4.9,12.2,12.6,15.2,21.8c4.2,12.8,7.8,26.1,11.2,39.3c4.8,18.4,8.5,37.3,13.8,55.4
				c6.6,22.5,17.8,41.3,33.2,55.8c13.2,12.4,26.9,23.8,40.2,36.1c10.3,9.6,20.8,19.1,30.3,29.9c11.6,13.1,19.2,29.9,24.3,48.4
				c1.6,6,3.2,12,4.8,18c4.1,15.6,12.7,27.2,22,38.3c7.1,8.4,14.2,16.8,21.3,25.2c14.7,17.4,27.5,37,40.4,56.4
				c6.3,9.5,13,18.7,20.1,27.2c9.3,10.9,21.2,15,33.5,17.1c8.8,1.5,17.6,2.8,26.3,4.6c8.4,1.7,16,6,22.4,13.1c1,1.1,1.6,2.6,2.4,3.9
				"/>
			<path class="st1" d="M461,840.6c1.5-0.8,3.1-1.4,4.6-2.3c6.4-4.1,13.1-7.6,19-12.7c11-9.6,12.5-23.1,5.1-37
				c-4.2-7.9-9.5-14.6-15.3-20.5c-11.3-11.6-23.8-20.9-37.2-28.1c-13.2-7.1-26.7-12.1-41.3-11c-16,1.2-27.3,13.8-27.7,34.7
				c-0.3,17,4.5,32.1,11.3,46.4c4.2,8.9,9.4,17,16.1,23.3c2.6,2.5,5.3,4.9,7.9,7.3"/>
			<path class="st1" d="M849.8,840.6c-0.8-13.2-1.8-26.4-2.4-39.7c-0.3-6.1,0.2-12.4,0.6-18.5c0.8-13.5,1.9-26.9,2.8-40.4
				c0.9-13.7,2.7-27.3,1.6-41.2c-1-12.8-5.1-23.5-13.7-30.6c-21.5-17.9-45.3-24.2-70.7-20.5c-19.2,2.8-34.7,14.3-47.3,32.7
				c-16.3,24-21.4,51.7-17.9,82.4c2.4,21.1,7.6,41.2,14,60.9c1.6,4.8,2.4,10,3.6,15"/>
			<path class="st1" d="M1189.6,533.6c-8.3,3.1-16.7,5.6-24.8,9.5c-13.2,6.5-25.6,15.1-36.3,26.9c-7.2,7.9-14,16.4-20.5,25.1
				c-7.7,10.1-14.8,20.8-22.3,31c-6.7,9.1-13.5,18.2-20.7,26.6c-10.5,12.4-21.5,24.1-34.6,32.1c-15.6,9.5-31.2,10.8-46.9,0.2
				c-10.1-6.8-18-16.7-24.6-28.3c-7.8-13.6-13.5-28.6-19-43.8c-7.6-21.1-16.9-40.9-30.5-56.9c-11.7-13.8-24.9-25-38.6-35.3
				c-14.8-11.1-29.6-22.1-44-33.8c-13-10.6-24.6-23.5-33-40.2c-6.2-12.3-10.2-25.6-11-40.2c-0.5-8.2,0-16.3,2.3-24
				c4.4-14.7,13.9-21.2,26.3-18.4c10.1,2.3,19.3,7.8,27.7,14.9c28,23.3,55.9,46.8,83.4,70.8c8.9,7.8,16.7,17.5,24.9,26.6
				c11.1,12.3,21.5,25.6,33.1,37.2c14.8,14.9,32,23.5,51.4,23c18.2-0.5,33-10.1,44.4-27.8c9.2-14.2,14.8-31,20.3-47.7
				c7.7-23.5,14.9-47.3,19.6-72.2c3.1-16.2,5.3-32.6,5.4-49.4c0.1-13.1,0.4-26.3-0.1-39.4c-1.2-31.9-6-62.9-14.9-93
				c-3.7-12.5-6.7-25.5-9.2-38.5c-1-5.3-0.6-11.3-0.1-16.9c0.9-10,5.9-17.2,12.3-22.2c6.8-5.4,14.2-10.3,21.8-13.5
				c18.7-7.8,37.6-14.6,56.4-21.7c0.6-0.2,1.2-0.3,1.8-0.4"/>
			<path class="st1" d="M1189.6,323.5c-0.8,2.4-2,4.7-2.4,7.2c-3.5,21.7-4.8,43.6-3,65.6c0.5,6.4,1.8,12.6,3,18.9
				c0.4,1.9,1.6,3.4,2.4,5.1"/>
			<path class="st1" d="M720.4,840.6c-1.2-5-2.1-10.2-3.6-15c-6.4-19.7-11.6-39.8-14-60.9c-3.5-30.6,1.6-58.4,17.9-82.4
				c12.5-18.4,28.1-29.9,47.3-32.7c25.4-3.7,49.2,2.6,70.7,20.5c8.6,7.2,12.7,17.8,13.7,30.6c1.1,13.9-0.7,27.5-1.6,41.2
				c-0.9,13.5-1.9,26.9-2.8,40.4c-0.4,6.2-0.8,12.4-0.6,18.5c0.6,13.2,1.6,26.4,2.4,39.7"/>
			<path class="st1" d="M1.1,94c9.7,6.4,17.2,15.9,23,27.4c7.2,14.4,10.7,30.2,9.7,47.2c-0.5,9.1-1.7,18.2-3,27.2
				c-2.9,20.7-0.7,40.9,3.6,60.9c6.1,28.4,14.9,55.5,24.7,82.1c5.6,15.2,11.1,30.6,15.7,46.3c8.8,30.1,4,57.8-10.9,83.3
				C49,494,28.9,509,4.6,516c-1.2,0.3-2.4,0.9-3.6,1.3"/>
			<path class="st1" d="M1.1,427.4c0.7-0.8,1.7-1.5,2.2-2.5c3.9-7.3,5.7-15.5,5.8-24.1c0.2-11.9-2.3-23.2-6-34.1
				c-0.4-1.1-1.3-1.9-2-2.8"/>
			<path class="st1" d="M511.2,3.3c2.4,4.2,4.8,8.3,7.2,12.5c6.4,11.4,12,23.2,14,37.1c2.1,15-1.9,26.9-11.6,35.9
				c-8,7.5-17.3,11.6-26.8,14.3c-16.4,4.8-33,9.3-49.6,12.8c-6.7,1.4-13.8,0.9-20.5-0.1c-13.6-2.1-20.7-17.6-18.9-34.1
				c1.9-17.3,8.7-31.6,17.2-44.8c6.8-10.5,14.4-20.2,21.5-30.3c0.7-1,1.3-2.3,1.9-3.5"/>
			<path class="st1" d="M403.4,840.6c-2.6-2.4-5.3-4.8-7.9-7.3c-6.7-6.3-11.9-14.3-16.1-23.3c-6.8-14.3-11.6-29.4-11.3-46.4
				c0.4-20.9,11.7-33.5,27.7-34.7c14.6-1.1,28.1,4,41.3,11c13.4,7.2,25.9,16.5,37.2,28.1c5.8,6,11.1,12.6,15.3,20.5
				c7.4,14,5.9,27.5-5.1,37c-5.9,5.1-12.6,8.5-19,12.7c-1.5,0.9-3,1.6-4.6,2.3"/>
			<path class="st1" d="M1062.7,3.3c0.8,1,1.5,2.4,2.6,3c9.9,5.9,20.4,9.1,31.2,10c18.6,1.6,36.7-2.5,54.3-10c1.5-0.6,2.7-2,4.1-3.1
				"/>
			<path class="st1" d="M1189.6,3.3c0,12.1,0,24.3,0,36.4c-7,2.7-14,5.3-21,8.1c-19.4,7.8-39,14-59.2,17.3
				c-19,3.1-38.1,3.1-57.1,2.3c-14.3-0.6-28.5-2.9-42.7-4.4c-1.4-0.2-2.9-0.5-4.3-0.9c-7.3-2.2-12.2-7.5-13.2-17.1
				c-0.8-7.4-1.3-14.8-1.8-22.3c-0.4-6.4-0.4-12.9-0.7-19.3"/>
			<path class="st1" d="M729.1,3.3c-1.3,2.9-2.2,6.1-3.8,8.6c-10.9,16.6-24.8,23.9-41.8,19.9c-9.5-2.2-17.2-9.1-24.1-17.2
				c-3-3.5-5.5-7.6-8.2-11.4"/>
			<path class="st1" d="M1155,3.3c-1.4,1-2.6,2.4-4.1,3.1c-17.6,7.5-35.7,11.6-54.3,10c-10.9-0.9-21.4-4.1-31.2-10
				c-1-0.6-1.7-2-2.6-3"/>
			<path class="st1" d="M877.6,3.3c-4.2,2.4-8.3,5-12.6,7c-10.7,5.1-21.6,9.5-33.3,8.4c-8.9-0.8-16-5.3-20.3-15.5"/>
			<path class="st1" d="M1189.6,420.4c-0.8-1.7-2.1-3.3-2.4-5.1c-1.2-6.2-2.5-12.5-3-18.9c-1.7-22-0.4-43.9,3-65.6
				c0.4-2.5,1.6-4.8,2.4-7.2"/>
			<path class="st1" d="M1.1,762.3c1.4,4.6,3.3,9.1,4.2,13.9c4.1,20.6,3,41.1-1.8,61.4c-0.2,1-0.3,2-0.5,3c-2.1,0.7-1.9-1-1.9-2.7"
				/>
			<path class="st1" d="M1.1,363.8c0.7,0.9,1.6,1.7,2,2.8c3.7,10.9,6.2,22.2,6,34.1c-0.1,8.7-1.9,16.8-5.8,24.1
				c-0.5,1-1.5,1.7-2.2,2.5"/>
			<path class="st1" d="M159.5,3.3c-2.7,6.6-6.8,11.7-12.2,14.8c-6,3.4-10,0.7-14.6-7.7c-1.1-2.1-1.6-4.7-2.3-7.1"/>
			<path class="st1" d="M985.2,113.4c-0.5,8.2-1,16.7-1.7,25.1c-1.2,15.6-8.1,25.1-19.9,30.2c-8.8,3.8-17.6,8.1-25.9,13.6
				c-13.3,8.8-22.6,23-29.7,39.5c-4.6,10.7-8.5,21.8-13.1,32.5c-3.1,7.1-6.5,14.2-10.5,20.4c-5.1,7.9-12.3,11.9-20.5,12.4
				c-10.8,0.7-20.8-3.3-30.5-8.6c-12.4-6.7-24-15-33.5-27.3c-10.2-13.1-15.7-28.7-15.8-47.3c-0.1-35.3,12.7-61.1,36.4-79.1
				c11.1-8.4,23.1-14.5,35.3-19.6c21.9-9.1,43.8-18.2,66-26.2c14.8-5.4,30.1-7.5,45.6-6.8c8.9,0.4,14.9,6.2,16.3,17.3
				C984.5,97.3,984.7,105.2,985.2,113.4z"/>
			<path class="st1" d="M572.7,602.4c-0.1,11.9-1.3,23.4-5.5,34.3c-5.7,14.6-15.3,21.8-27.7,24c-13.1,2.3-25.4-2.2-37.3-8.3
				c-14.3-7.3-27.5-17.2-40-28.5c-9.3-8.4-18.5-16.9-27.2-26.1c-5.9-6.3-11.4-13.4-16.2-21.1c-9.3-14.8-8.7-31.3-3.1-47.7
				c10.4-30.4,28.7-50.5,53.2-62c12.4-5.8,25.1-8.9,38.4-8.8c15.6,0.2,27.5,8.4,36.4,24.2c6.9,12.3,11.5,26,15.4,40
				c5.6,19.9,10.2,40.1,12.3,61.1C572.2,589.8,572.4,596.1,572.7,602.4z"/>
			<path class="st1" d="M1068.4,309.2c-0.7,34.1-5.4,62.6-18.9,88c-4.2,7.9-9.3,14.7-16.1,19.5c-10.3,7.2-23,5.1-33.6-5.7
				c-12.4-12.5-19.8-28.5-21.7-48.3c-1.1-11.4,1-22.4,3.5-33.2c4.7-20.1,9.8-40,12-60.8c1.4-13.5,2.7-27.1,4.1-40.7
				c0.4-3.8,1.1-7.6,1.8-11.4c3-14.8,11.2-20,22.5-14.2c6.7,3.4,12.5,8.4,17.7,14.6c14.6,17.4,22.4,39.4,25.8,63.8
				C1067.2,291.5,1067.8,302.5,1068.4,309.2z"/>
			<path class="st1" d="M165.7,738.6c-0.3-11.5,1.9-22,7.5-31.2c6.9-11.3,16.4-16.9,27.4-18.9c10.1-1.9,19.5,0,27.9,7.6
				c7.3,6.7,10.4,16.4,12,27c2.7,17.5,0.3,34.7-2.9,51.7c-2.7,14.2-6.1,28.2-11.8,41c-1.9,4.2-4.3,8.1-7,11.7
				c-3.2,4.4-7.3,5-11.6,2.2c-6.6-4.2-11.3-11-16-17.9c-9.8-14.5-17.9-30.3-22.3-48.6c-1.9-7.9-2.8-16.3-4.2-24.4
				C165.2,738.8,165.4,738.7,165.7,738.6z"/>
		</g>
	</g>
</g>
</svg>
