<svg id="Capa_1" data-name="Capa 1" xmlns="http://www.w3.org/2000/svg" viewBox="0 0 512 512"><defs><style>.cls-1{fill:#f7a615;}</style></defs><title>fax</title><path class="cls-1" d="M180,136a60,60,0,0,0-120,0V437a60,60,0,0,0,120,0Z"/><path class="cls-1" d="M271,212H421v30H271Z"/><path class="cls-1" d="M497,121H208.48A88.27,88.27,0,0,1,210,136V437a89.92,89.92,0,0,1-40.43,75H497a15,15,0,0,0,15-15V136A15,15,0,0,0,497,121ZM286,452a15,15,0,1,1,15-15A15,15,0,0,1,286,452Zm0-60a15,15,0,1,1,15-15A15,15,0,0,1,286,392Zm0-60a15,15,0,1,1,15-15A15,15,0,0,1,286,332Zm60,120a15,15,0,1,1,15-15A15,15,0,0,1,346,452Zm0-60a15,15,0,1,1,15-15A15,15,0,0,1,346,392Zm0-60a15,15,0,1,1,15-15A15,15,0,0,1,346,332Zm60,120a15,15,0,1,1,15-15A15,15,0,0,1,406,452Zm0-60a15,15,0,1,1,15-15A15,15,0,0,1,406,392Zm0-60a15,15,0,1,1,15-15A15,15,0,0,1,406,332Zm45-75a15,15,0,0,1-15,15H256a15,15,0,0,1-15-15V197a15,15,0,0,1,15-15H436a15,15,0,0,1,15,15Z"/><path class="cls-1" d="M436,0H256a15,15,0,0,0-15,15V90H451V15A15,15,0,0,0,436,0ZM376,60H316a15,15,0,0,1,0-30h60a15,15,0,0,1,0,30Z"/><path class="cls-1" d="M30,437V136a88.27,88.27,0,0,1,1.52-15H15A15,15,0,0,0,0,136V497a15,15,0,0,0,15,15H70.43A89.92,89.92,0,0,1,30,437Z"/></svg>