<svg xmlns="http://www.w3.org/2000/svg" viewBox="0 0 1190.66 841.89"><defs><style>.cls-1{fill:#100f19;}.cls-2{fill:none;stroke:#2c7b83;stroke-miterlimit:10;stroke-width:2.08px;}</style></defs><title>fond1.3</title><g id="Calque_2" data-name="Calque 2"><rect class="cls-1" width="1190.55" height="841.89"/></g><g id="Calque_1" data-name="Calque 1"><path class="cls-2" d="M1189.62,729.71c-3.88,4.73-8.2,9-11.57,14.26-14.49,22.56-20.23,48.25-16.45,77,.86,6.58,2.16,13.08,3.26,19.61M985.19,113.42c-.53-8.19-.65-16.09-1.61-23.83-1.38-11-7.39-16.85-16.29-17.29a116.13,116.13,0,0,0-45.55,6.77c-22.16,8-44.1,17.06-66,26.18-12.22,5.1-24.2,11.14-35.27,19.58-23.67,18-36.48,43.86-36.36,79.13.06,18.6,5.65,34.22,15.8,47.3,9.47,12.2,21.12,20.54,33.49,27.25,9.71,5.26,19.71,9.21,30.5,8.55,8.26-.5,15.4-4.48,20.55-12.42A142.16,142.16,0,0,0,895,254.23c4.63-10.65,8.53-21.78,13.12-32.46,7.06-16.41,16.31-30.65,29.66-39.45a165,165,0,0,1,25.9-13.58c11.8-5.06,18.64-14.6,19.86-30.2C984.16,130.09,984.64,121.61,985.19,113.42Zm-412.44,489c-.4-6.3-.58-12.62-1.22-18.87-2.15-21-6.67-41.22-12.3-61.08-4-14-8.53-27.69-15.44-40-8.88-15.77-20.8-23.94-36.37-24.17-13.3-.19-26,3-38.38,8.76-24.52,11.48-42.8,31.56-53.17,62-5.59,16.39-6.18,32.88,3.08,47.66a135.94,135.94,0,0,0,16.19,21.1c8.71,9.24,17.95,17.72,27.21,26.1,12.47,11.3,25.66,21.18,40,28.46,11.91,6.07,24.14,10.64,37.27,8.31,12.4-2.2,22-9.38,27.67-24C571.47,625.75,572.62,614.27,572.75,602.38Zm495.68-293.2c-.63-6.71-1.23-17.67-2.76-28.42-3.48-24.44-11.23-46.35-25.84-63.8a57.1,57.1,0,0,0-17.73-14.56c-11.36-5.79-19.52-.62-22.51,14.2-.76,3.75-1.42,7.55-1.82,11.37-1.44,13.54-2.68,27.12-4.12,40.66-2.23,20.81-7.32,40.75-12,60.81-2.53,10.8-4.59,21.83-3.54,33.18,1.84,19.8,9.34,35.78,21.69,48.28,10.69,10.82,23.34,13,33.65,5.72,6.73-4.72,11.83-11.51,16-19.45C1063,371.8,1067.69,343.33,1068.43,309.18ZM165.73,738.6l-.86.23c1.37,8.15,2.28,16.48,4.21,24.42,4.45,18.29,12.58,34.08,22.33,48.62,4.66,6.93,9.42,13.72,16,17.93,4.28,2.74,8.4,2.15,11.59-2.21A63.88,63.88,0,0,0,226,815.87c5.65-12.87,9.08-26.84,11.77-41,3.22-17,5.54-34.14,2.87-51.66-1.62-10.64-4.68-20.37-12-27-8.4-7.63-17.84-9.52-27.9-7.64-11,2.06-20.45,7.61-27.39,18.93C167.63,716.65,165.45,727.15,165.73,738.6Z"/><path class="cls-2" d="M75.35,840.56c-4.51-23.33-8.79-46.74-13.58-70a525.7,525.7,0,0,0-29.89-97.8c-2.35-5.6-4.86-11.1-7-16.84-6.76-18.25-5.87-27.54,10.45-38.76,6.15-4.23,12.36-8.28,18.43-12.66,9.46-6.81,17.07-16.23,23.13-27.48C84.41,563.12,91.49,548.87,99,535c9.56-17.68,20.32-34.2,33-48.51,8.71-9.82,18.08-18.73,27-28.22,6.2-6.57,12.17-13.67,13-24.51a47.93,47.93,0,0,0-1.35-14c-2.87-12.54-9-22.88-15.41-32.83-10.67-16.55-22-32.49-32.33-49.31a118.26,118.26,0,0,1-17.65-52.17,111,111,0,0,1,3-36.73c4.91-19.66,12.83-37.47,21.47-54.78,6-12.13,12.39-24.1,19.33-35.44,8.4-13.72,19.88-21.69,33.71-23.23,11.58-1.28,23.22-1.62,34.83-2.51,18-1.38,35.77-5.16,53.47-9.53,7.84-1.94,15.89-2.7,23.88-3.51,11.22-1.14,20.36,8.54,24.25,21.39,7.24,23.91,2.94,45.53-9,65.13-6.72,11-14.24,21.36-21.56,31.83-10.28,14.7-20.13,29.79-27.19,47.31-5.28,13.12-8.83,26.9-8.58,42,.27,16,6,28.19,15.91,37.52,10.12,9.49,22,13.35,34.23,15.59,17.15,3.14,34.29,3.51,51.25-1.86,16.7-5.28,27.88-18.52,34.77-38,7.22-20.39,10.13-42.2,13.7-63.8,2.53-15.32,5.35-30.51,12-44.11a76.45,76.45,0,0,1,25.33-29.4c17.72-12.44,36.89-17.17,56.94-15.22,16.26,1.58,32,6.52,46.11,17.27,5.89,4.47,11,10.23,13.24,18.77a45.33,45.33,0,0,1,0,22.9c-3.64,14-7.33,28-12.11,41.38a466.11,466.11,0,0,1-18.07,43.59c-13.8,29-34.36,48-59.34,59.69-11.68,5.47-23.58,10.19-35.35,15.38-10.93,4.82-21.66,10.36-30.36,20.27a222.16,222.16,0,0,0-15,19.42c-9.4,13.52-18.28,27.61-30,38.25-10.32,9.35-21.81,15.24-34.32,17.5-11.6,2.09-23.34,3-35,4.92a71.64,71.64,0,0,0-17.12,4.81c-7.78,3.42-11.48,11.79-13.6,21.19-2.66,11.8-4.66,23.83-7.6,35.51-4.3,17-13.21,29.41-25.93,37.65-12.95,8.38-27,12.71-40.8,17.82-14.62,5.4-29.3,10.68-43.61,17.18-12.34,5.61-22.4,15.47-28,31-3.83,10.73-5.42,22.15-5.85,33.85-1,28.58,2.82,56.56,6.45,84.59,2.13,16.41,4.62,32.81,4.08,49.57"/><path class="cls-2" d="M305,840.56c-2.07-16.95-4.54-33.84-6.08-50.87A309.41,309.41,0,0,1,297.72,753c.62-21.2,2.6-42.19,10.46-61.59,6.05-14.9,15.27-25.47,27.25-32.4,23.94-13.82,48.48-14,73.29-4.46,17.92,6.89,34.47,17.72,51,28.5,18.66,12.14,37.36,24.29,57.38,32.66,13.85,5.79,28.06,9.72,42.74,9.23,13.33-.45,26.14-3.92,37.82-12.58q20.82-15.45,24.2-45.32a168.88,168.88,0,0,0-1.55-45.81c-5.32-33-11.15-65.89-16.52-98.89-3.55-21.8-5.67-43.85-4.72-66.14,1.15-26.81,8.19-50.63,23.73-69.92,12.76-15.83,27.19-28.46,44-36.52,10-4.8,20.22-6.6,30.18.23,7.15,4.89,12.21,12.63,15.24,21.77,4.24,12.84,7.75,26.09,11.17,39.33,4.76,18.41,8.51,37.26,13.85,55.38,6.61,22.47,17.84,41.31,33.17,55.78,13.15,12.43,26.92,23.83,40.16,36.11,10.34,9.58,20.77,19.13,30.28,29.93,11.55,13.12,19.19,29.86,24.25,48.36q2.46,9,4.84,18c4.13,15.63,12.72,27.24,22,38.26,7.09,8.44,14.24,16.81,21.34,25.24,14.69,17.44,27.51,37,40.39,56.45a280.55,280.55,0,0,0,20.14,27.17c9.29,10.93,21.16,15,33.53,17.09,8.77,1.47,17.56,2.83,26.29,4.64A40.66,40.66,0,0,1,1056,836.63a24.83,24.83,0,0,1,2.37,3.93"/><path class="cls-2" d="M461,840.56a44.39,44.39,0,0,0,4.56-2.32c6.38-4.12,13.14-7.58,19-12.66,11-9.57,12.54-23.07,5.12-37A89,89,0,0,0,474.34,768,152.72,152.72,0,0,0,437.13,740c-13.2-7.06-26.75-12.12-41.34-11-16,1.2-27.27,13.78-27.65,34.69-.31,17,4.52,32.14,11.28,46.4,4.23,8.91,9.39,17,16.1,23.26,2.62,2.45,5.28,4.85,7.92,7.27"/><path class="cls-2" d="M849.77,840.56c-.83-13.22-1.83-26.43-2.4-39.67a179.47,179.47,0,0,1,.57-18.53c.84-13.48,1.87-26.94,2.78-40.41.92-13.71,2.72-27.33,1.61-41.2-1-12.82-5.07-23.46-13.69-30.64-21.46-17.89-45.27-24.2-70.67-20.5-19.16,2.79-34.74,14.28-47.26,32.67-16.34,24-21.39,51.74-17.92,82.38,2.39,21.09,7.62,41.17,14,60.85,1.57,4.84,2.44,10,3.63,15"/><path class="cls-2" d="M1189.62,533.58c-8.27,3.12-16.75,5.57-24.76,9.5a119,119,0,0,0-36.3,26.89c-7.16,7.93-14,16.42-20.54,25.11-7.65,10.09-14.78,20.8-22.35,31-6.73,9.07-13.5,18.15-20.7,26.62-10.52,12.38-21.52,24.12-34.64,32.14-15.57,9.5-31.23,10.83-46.87.25-10.1-6.83-18-16.74-24.57-28.34-7.76-13.63-13.51-28.62-19-43.8-7.63-21.07-16.91-40.87-30.47-56.88-11.66-13.77-24.87-25-38.6-35.34-14.76-11.09-29.55-22.12-44-33.84-13-10.59-24.57-23.46-33-40.15a101,101,0,0,1-11-40.22,70.29,70.29,0,0,1,2.31-24c4.36-14.73,13.93-21.17,26.27-18.36,10.15,2.32,19.26,7.83,27.67,14.86,28,23.34,55.88,46.76,83.43,70.83,8.9,7.77,16.74,17.49,24.89,26.57C958.48,488.78,969,502,980.49,513.63c14.84,14.92,32,23.53,51.38,23,18.18-.52,33-10.13,44.42-27.78,9.2-14.23,14.79-31,20.28-47.67,7.72-23.53,14.88-47.33,19.6-72.16,3.08-16.22,5.28-32.61,5.35-49.35.06-13.13.43-26.3-.08-39.41a378.79,378.79,0,0,0-14.9-93c-3.71-12.54-6.65-25.5-9.21-38.5-1-5.33-.58-11.32-.07-16.9a31.24,31.24,0,0,1,12.31-22.21c6.84-5.38,14.17-10.3,21.79-13.5,18.66-7.83,37.61-14.56,56.44-21.72a12.29,12.29,0,0,1,1.82-.4"/><path class="cls-2" d="M1189.62,323.5c-.82,2.41-2,4.74-2.4,7.25a275.44,275.44,0,0,0-3,65.62,174.2,174.2,0,0,0,3,18.88c.36,1.86,1.58,3.44,2.41,5.15"/><path class="cls-2" d="M720.39,840.56c-1.19-5-2.06-10.21-3.63-15-6.35-19.68-11.58-39.76-14-60.85-3.47-30.64,1.58-58.38,17.92-82.38,12.52-18.39,28.1-29.88,47.26-32.67,25.4-3.7,49.21,2.61,70.67,20.5,8.62,7.18,12.66,17.82,13.69,30.64,1.11,13.87-.69,27.49-1.61,41.2-.91,13.47-1.94,26.93-2.78,40.41a179.47,179.47,0,0,0-.57,18.53c.57,13.24,1.57,26.45,2.4,39.67"/><path class="cls-2" d="M1.07,94c9.75,6.4,17.17,15.88,23,27.43a91.77,91.77,0,0,1,9.73,47.19c-.53,9.11-1.75,18.18-3,27.2-2.86,20.69-.68,40.85,3.58,60.87,6.05,28.42,14.93,55.47,24.74,82.13,5.6,15.22,11.1,30.56,15.69,46.29,8.79,30.1,4,57.79-10.87,83.33S28.9,509,4.62,516c-1.2.34-2.37.86-3.55,1.29"/><path class="cls-2" d="M1.07,427.38a14.13,14.13,0,0,0,2.2-2.5,51.94,51.94,0,0,0,5.8-24.13c.16-11.94-2.34-23.23-6.05-34.13a11.9,11.9,0,0,0-1.95-2.81"/><path class="cls-2" d="M511.16,3.35c2.39,4.16,4.81,8.31,7.17,12.5,6.4,11.36,12,23.19,14,37.14,2.13,14.95-1.94,26.85-11.6,35.85-8,7.48-17.29,11.59-26.82,14.35-16.45,4.76-33,9.27-49.58,12.85-6.66,1.43-13.78.94-20.54-.11-13.6-2.12-20.72-17.57-18.89-34.06,1.92-17.26,8.72-31.63,17.21-44.76,6.79-10.5,14.35-20.21,21.54-30.3a33.54,33.54,0,0,0,1.87-3.46"/><path class="cls-2" d="M403.44,840.56c-2.64-2.42-5.3-4.82-7.92-7.27-6.71-6.29-11.87-14.35-16.1-23.26-6.76-14.26-11.59-29.35-11.28-46.4.38-20.91,11.67-33.49,27.65-34.69,14.59-1.1,28.14,4,41.34,11A152.72,152.72,0,0,1,474.34,768a89,89,0,0,1,15.34,20.52c7.42,14,5.9,27.47-5.12,37-5.85,5.08-12.61,8.54-19,12.66a44.39,44.39,0,0,1-4.56,2.32"/><path class="cls-2" d="M1062.72,3.35c.84,1,1.55,2.44,2.56,3a71.64,71.64,0,0,0,31.22,10c18.65,1.55,36.72-2.54,54.34-10,1.48-.63,2.75-2,4.12-3.06"/><path class="cls-2" d="M1189.62,3.35V39.78c-7,2.7-14,5.32-21,8.12-19.37,7.77-39,14-59.23,17.3-19,3.13-38.06,3.1-57.1,2.26-14.27-.63-28.5-2.87-42.74-4.43a24.44,24.44,0,0,1-4.26-1c-7.3-2.19-12.19-7.48-13.22-17.14-.79-7.4-1.34-14.84-1.78-22.28-.38-6.42-.45-12.87-.66-19.31"/><path class="cls-2" d="M729.06,3.35c-1.27,2.89-2.21,6.11-3.85,8.62-10.87,16.62-24.77,23.9-41.84,19.94-9.52-2.21-17.16-9.13-24.09-17.21-3-3.47-5.49-7.55-8.22-11.35"/><path class="cls-2" d="M1155,3.35c-1.37,1-2.64,2.43-4.12,3.06-17.62,7.47-35.69,11.56-54.34,10a71.64,71.64,0,0,1-31.22-10c-1-.6-1.72-2-2.56-3"/><path class="cls-2" d="M877.63,3.35c-4.19,2.35-8.3,5-12.59,7-10.72,5.09-21.6,9.48-33.3,8.45-8.86-.79-16-5.34-20.35-15.47"/><path class="cls-2" d="M1189.62,420.4c-.83-1.71-2-3.29-2.41-5.15a174.2,174.2,0,0,1-3-18.88,275.44,275.44,0,0,1,3-65.62c.41-2.51,1.58-4.84,2.4-7.25"/><path class="cls-2" d="M1.07,762.27c1.42,4.62,3.25,9.11,4.2,13.88,4.09,20.64,3,41.12-1.83,61.4-.23,1-.35,2-.52,3-2.12.72-1.87-1-1.87-2.71"/><path class="cls-2" d="M1.07,363.81a11.9,11.9,0,0,1,2,2.81c3.71,10.9,6.21,22.19,6.05,34.13a51.94,51.94,0,0,1-5.8,24.13,14.13,14.13,0,0,1-2.2,2.5"/><path class="cls-2" d="M159.54,3.35c-2.73,6.64-6.8,11.74-12.17,14.79-6,3.44-10,.72-14.6-7.67-1.14-2.06-1.57-4.73-2.32-7.12"/><path class="cls-2" d="M985.19,113.42c-.55,8.19-1,16.67-1.68,25.12-1.22,15.6-8.06,25.14-19.86,30.2a165,165,0,0,0-25.9,13.58c-13.35,8.8-22.6,23-29.66,39.45-4.59,10.68-8.49,21.81-13.12,32.46a142.16,142.16,0,0,1-10.52,20.41c-5.15,7.94-12.29,11.92-20.55,12.42-10.79.66-20.79-3.29-30.5-8.55-12.37-6.71-24-15.05-33.49-27.25-10.15-13.08-15.74-28.7-15.8-47.3-.12-35.27,12.69-61.1,36.36-79.13,11.07-8.44,23-14.48,35.27-19.58,21.9-9.12,43.84-18.15,66-26.18a116.13,116.13,0,0,1,45.55-6.77c8.9.44,14.91,6.25,16.29,17.29C984.54,97.33,984.66,105.23,985.19,113.42Z"/><path class="cls-2" d="M572.75,602.38c-.13,11.89-1.28,23.37-5.5,34.27-5.66,14.64-15.27,21.82-27.67,24-13.13,2.33-25.36-2.24-37.27-8.31-14.3-7.28-27.49-17.16-40-28.46-9.26-8.38-18.5-16.86-27.21-26.1A135.94,135.94,0,0,1,419,576.7c-9.26-14.78-8.67-31.27-3.08-47.66,10.37-30.42,28.65-50.5,53.17-62,12.36-5.79,25.08-8.95,38.38-8.76,15.57.23,27.49,8.4,36.37,24.17,6.91,12.27,11.46,25.95,15.44,40,5.63,19.86,10.15,40.11,12.3,61.08C572.17,589.76,572.35,596.08,572.75,602.38Z"/><path class="cls-2" d="M1068.43,309.18c-.74,34.15-5.45,62.62-19,88-4.22,7.94-9.32,14.73-16,19.45-10.31,7.23-23,5.1-33.65-5.72-12.35-12.5-19.85-28.48-21.69-48.28-1.05-11.35,1-22.38,3.54-33.18,4.7-20.06,9.79-40,12-60.81,1.44-13.54,2.68-27.12,4.12-40.66.4-3.82,1.06-7.62,1.82-11.37,3-14.82,11.15-20,22.51-14.2A57.1,57.1,0,0,1,1039.83,217c14.61,17.45,22.36,39.36,25.84,63.8C1067.2,291.51,1067.8,302.47,1068.43,309.18Z"/><path class="cls-2" d="M165.73,738.6c-.28-11.45,1.9-22,7.55-31.17,6.94-11.32,16.41-16.87,27.39-18.93,10.06-1.88,19.5,0,27.9,7.64,7.34,6.66,10.4,16.39,12,27,2.67,17.52.35,34.67-2.87,51.66C235,789,231.6,803,226,815.87A63.88,63.88,0,0,1,219,827.59c-3.19,4.36-7.31,4.95-11.59,2.21-6.58-4.21-11.34-11-16-17.93-9.75-14.54-17.88-30.33-22.33-48.62-1.93-7.94-2.84-16.27-4.21-24.42Z"/></g></svg>