<svg id="Layer_1" data-name="Layer 1" xmlns="http://www.w3.org/2000/svg" viewBox="0 0 502 502"><defs><style>.cls-1{fill:#f7a615;}</style></defs><title>globe</title><path class="cls-1" d="M256,5C117.38,5,5,117.38,5,256A251,251,0,0,0,78.52,433.48c98,98,256.94,98,355,0s98-256.94,0-355A249.32,249.32,0,0,0,256,5ZM87,87a239.8,239.8,0,0,1,54.73-41l28.74,21.61a82.23,82.23,0,0,0,7.91,5.26,71.35,71.35,0,0,1,22.44,20.79l16.63,24a20.07,20.07,0,0,1-.6,23.76l-7.71,10a11.81,11.81,0,0,1-10.78,4.48l-8.75-1.12a37.57,37.57,0,0,0-37.29,18.4,11.93,11.93,0,0,1-11.93,5.64l-20-2.55a38.64,38.64,0,0,0-37,16.74,35,35,0,0,0-.59,38.37l13.34,21.06a33.12,33.12,0,0,0,43.45,11.43l13.73-7.36a19.35,19.35,0,0,1,19,.46l26.07,15.64a12.34,12.34,0,0,0,6.7,1.77c9.65-.27,19.14,4.8,25.41,13.53l12.75,17.78c1,1.38,2.05,2.73,3.15,4L263,329.29a2.49,2.49,0,0,1,.57,2.09,2.93,2.93,0,0,1-1.19,1.78L237.34,352.4a46.56,46.56,0,0,0-16.2,23.3L212.72,403a11.07,11.07,0,0,1-2.09,3.86l-8.2,9.85a52.64,52.64,0,0,0-12.18,28.89,7,7,0,0,1-4.28,5.84.54.54,0,0,1-.59-.1,1,1,0,0,1-.2-.51l-7.68-46.13a41.9,41.9,0,0,0-8-18.46l-28.3-37.1a26.74,26.74,0,0,1-4.54-9.14l-9.34-33.69a41.46,41.46,0,0,0-28.92-28.8l-2-.56a20,20,0,0,1-8.49-4.75L70.47,255.84a34,34,0,0,1-6-7.5,44.84,44.84,0,0,0-45.73-21.75A237.26,237.26,0,0,1,87,87ZM425,425c-93.33,93.34-244.66,93.34-338,0A239,239,0,0,1,17,256q0-8.53.6-17l1.91-.38a32.82,32.82,0,0,1,34.63,15.74,45.37,45.37,0,0,0,8.11,10.19L79.67,281a32.2,32.2,0,0,0,13.55,7.59l2,.56a29.43,29.43,0,0,1,20.52,20.43l9.33,33.69a38.94,38.94,0,0,0,6.57,13.22L160,393.56a29.73,29.73,0,0,1,5.69,13.14l7.69,46.14a12.54,12.54,0,0,0,12.42,10.68,12.35,12.35,0,0,0,4.84-1,19,19,0,0,0,11.59-15.81,40.62,40.62,0,0,1,9.46-22.3l8.2-9.86a23.14,23.14,0,0,0,4.33-8l8.42-27.32a34.51,34.51,0,0,1,12-17.32l25.06-19.24a14.88,14.88,0,0,0,5.74-9.41,14.53,14.53,0,0,0-3.29-11.75L255.48,301.9c-.89-1-1.74-2.14-2.54-3.25l-12.75-17.77c-8.59-12-21.85-18.9-35.48-18.54a.39.39,0,0,1-.21-.06l-26.07-15.64a31.4,31.4,0,0,0-30.83-.75l-13.73,7.36A21.07,21.07,0,0,1,106.23,246L92.89,224.91a23,23,0,0,1,.39-25.21,26.68,26.68,0,0,1,25.59-11.56l20,2.54a23.92,23.92,0,0,0,23.81-11.5,25.59,25.59,0,0,1,25.4-12.54l8.75,1.12a23.84,23.84,0,0,0,21.8-9.06l7.71-10a32,32,0,0,0,1-37.92l-16.63-24a83.4,83.4,0,0,0-26.24-24.3,69.59,69.59,0,0,1-6.76-4.5L153.62,39.9a239.57,239.57,0,0,1,249.81,28l-6.24,8.71a316.42,316.42,0,0,0-39.81,54L348.3,146a18,18,0,0,0,2.16,20.75,27.32,27.32,0,0,0,17.22,9.12l4.35.53a37.36,37.36,0,0,1,31.16,26.22,36.5,36.5,0,0,1-10.75,37.87L349.5,278.66A25.62,25.62,0,0,0,341,298v10.12a20.21,20.21,0,0,0,9.16,17.21A34.88,34.88,0,0,1,366,351.4l1,9.86A17.41,17.41,0,0,0,384.54,377H409.8A38.26,38.26,0,0,0,445,354.23l1.52-3.34a35.15,35.15,0,0,1,30.82-21.09l5.95-.23.18,0A237.85,237.85,0,0,1,425,425Zm62.12-107.79-2.95.3c-.47.05-.94.08-1.39.1l-5.94.27a47.11,47.11,0,0,0-41.26,28.3l-1.52,3.22A26.27,26.27,0,0,1,409.8,365H384.54a5.52,5.52,0,0,1-5.71-4.93l-1-10a46.57,46.57,0,0,0-21.16-34.9,8.17,8.17,0,0,1-3.66-7.07V298a13.62,13.62,0,0,1,4.45-10.35l43.05-38.12a48.52,48.52,0,0,0,14.23-50.35,49.38,49.38,0,0,0-41.2-34.64l-4.37-.54a15.3,15.3,0,0,1-9.66-5.12,6,6,0,0,1-.8-6.83l9-15.46a304.39,304.39,0,0,1,38.54-52.17,6.36,6.36,0,0,0,.46-.57l6-8.32Q419,81,425,87a237.44,237.44,0,0,1,70,169,240.38,240.38,0,0,1-7.89,61.21Z" transform="translate(-5 -5)"/></svg>