<?xml version="1.0" encoding="UTF-8" standalone="no"?>
<!DOCTYPE svg PUBLIC "-//W3C//DTD SVG 1.1//EN" "http://www.w3.org/Graphics/SVG/1.1/DTD/svg11.dtd">
<svg width="100%" height="100%" viewBox="0 0 478 478" version="1.1" xmlns="http://www.w3.org/2000/svg" xmlns:xlink="http://www.w3.org/1999/xlink" xml:space="preserve" xmlns:serif="http://www.serif.com/" style="fill-rule:evenodd;clip-rule:evenodd;stroke-linejoin:round;stroke-miterlimit:2;">
    <g>
        <g>
            <path d="M238.933,0C106.974,0 0,106.974 0,238.933C0,370.892 106.974,477.866 238.933,477.866C370.892,477.866 477.866,370.892 477.866,238.933C477.726,107.033 370.834,0.141 238.933,0ZM238.933,443.733C125.825,443.733 34.133,352.041 34.133,238.933C34.133,125.825 125.825,34.133 238.933,34.133C352.041,34.133 443.733,125.825 443.733,238.933C443.611,351.991 351.991,443.611 238.933,443.733Z" style="fill:rgb(247,166,21);fill-rule:nonzero;"/>
        </g>
    </g>
    <g>
        <g>
            <path d="M370.046,141.534C363.432,135.146 352.947,135.146 346.334,141.534L187.733,300.134L131.532,243.933C124.984,237.153 114.179,236.966 107.4,243.514C100.62,250.062 100.433,260.867 106.981,267.646C107.118,267.788 107.258,267.928 107.4,268.065L175.667,336.332C182.331,342.995 193.135,342.995 199.799,336.332L370.466,165.665C377.014,158.886 376.826,148.082 370.046,141.534Z" style="fill:rgb(247,166,21);fill-rule:nonzero;"/>
        </g>
    </g>
</svg>
