<svg id="Calque_1" data-name="Calque 1" xmlns="http://www.w3.org/2000/svg" viewBox="0 0 139.04 52.98"><defs><style>.cls-1{fill:#fff;stroke:#fff;}.cls-1,.cls-3,.cls-5,.cls-6{stroke-miterlimit:10;}.cls-1,.cls-5{stroke-width:0.25px;}.cls-2{fill:#4b929d;}.cls-3{fill:#f3bc52;}.cls-3,.cls-5,.cls-6{stroke:#0b0c1f;}.cls-3,.cls-6{stroke-width:0.5px;}.cls-4{fill:#f4a91d;}.cls-5,.cls-6{fill:#307a83;}</style></defs><title>logo-pcweb</title><path class="cls-1" d="M391.64,280.51v.59a1.3,1.3,0,0,1-2,1.08h0a3.89,3.89,0,0,0-2.05-.53,4.08,4.08,0,0,0-3.08,1.3,5,5,0,0,0,0,6.53,4,4,0,0,0,3.05,1.29,4.16,4.16,0,0,0,2.08-.51l.05,0a1.31,1.31,0,0,1,2,1.08v.52a1.34,1.34,0,0,1-.83,1.22,8.36,8.36,0,0,1-3.17.65,7.64,7.64,0,0,1-5.51-2.13,7.09,7.09,0,0,1-2.22-5.32,7.2,7.2,0,0,1,2.25-5.37,7.59,7.59,0,0,1,5.51-2.19,8.18,8.18,0,0,1,3.14.62A1.31,1.31,0,0,1,391.64,280.51Z" transform="translate(-351.09 -270.44)"/><path class="cls-1" d="M394.21,287.2a7.69,7.69,0,0,1,2.76-6.91,7.78,7.78,0,0,1,10.14.57,7.62,7.62,0,0,1,0,10.69,7.56,7.56,0,0,1-5.44,2.14,7.4,7.4,0,0,1-7.44-6.49Zm3.29-1.06a4.75,4.75,0,0,0,1.14,3.36,4,4,0,0,0,3.07,1.26,4,4,0,0,0,3.08-1.24,5.34,5.34,0,0,0,0-6.62,4.36,4.36,0,0,0-6.13,0A4.58,4.58,0,0,0,397.5,286.14Z" transform="translate(-351.09 -270.44)"/><path class="cls-1" d="M412.77,280.73a1.64,1.64,0,0,1,1.64-1.65h1.65v1.31a5.38,5.38,0,0,1,3.88-1.71,4.89,4.89,0,0,1,3.86,1.56,6.4,6.4,0,0,1,1.2,4.34v7.05a1.65,1.65,0,0,1-1.65,1.65h0a1.65,1.65,0,0,1-1.65-1.65v-6.28a5.18,5.18,0,0,0-.58-2.9,2.34,2.34,0,0,0-2.07-.82,2.54,2.54,0,0,0-2.32,1.08,7.4,7.4,0,0,0-.67,3.72v5.2a1.65,1.65,0,0,1-1.65,1.65h0a1.64,1.64,0,0,1-1.64-1.65Z" transform="translate(-351.09 -270.44)"/><path class="cls-1" d="M435.87,282.31h0A1.6,1.6,0,0,1,434,282a1.33,1.33,0,0,0-1-.4,1.08,1.08,0,0,0-.77.3,1,1,0,0,0-.32.76q0,.82,1.89,1.62a11.38,11.38,0,0,1,3.52,2.07,3.58,3.58,0,0,1,.9,2.55,4.48,4.48,0,0,1-1.51,3.45,5.2,5.2,0,0,1-3.56,1.31,5,5,0,0,1-4-1.78,1.57,1.57,0,0,1,.53-2.43h0a1.53,1.53,0,0,1,1.88.46,2.15,2.15,0,0,0,.24.26,2,2,0,0,0,1.43.56c1.1,0,1.66-.51,1.66-1.52,0-.58-.43-1.13-1.28-1.63l-1-.48-1-.48a6.23,6.23,0,0,1-2-1.4,3.45,3.45,0,0,1-.75-2.29,4.05,4.05,0,0,1,1.27-3.07,4.5,4.5,0,0,1,3.15-1.21,4,4,0,0,1,2.86,1.1A1.57,1.57,0,0,1,435.87,282.31Z" transform="translate(-351.09 -270.44)"/><path class="cls-1" d="M454.19,287h-9.51a.6.6,0,0,0-.57.72,4.08,4.08,0,0,0,1,2.07,3.47,3.47,0,0,0,2.58,1,3.37,3.37,0,0,0,2-.59,5.71,5.71,0,0,0,1-1.05,1.59,1.59,0,0,1,2-.41h0a1.59,1.59,0,0,1,.44,2.41l-.27.32a7.54,7.54,0,0,1-1.53,1.28,6.57,6.57,0,0,1-1.77.74,8.88,8.88,0,0,1-2.05.23,6.7,6.7,0,0,1-5.11-2,7.68,7.68,0,0,1-1.92-5.46,7.89,7.89,0,0,1,1.86-5.45,7.11,7.11,0,0,1,9.95-.06,7.89,7.89,0,0,1,1.81,5.5Zm-4.2-2.68a.59.59,0,0,0,.54-.83,3,3,0,0,0-3-1.8,3.18,3.18,0,0,0-1.12.19,3,3,0,0,0-.95.52,3.11,3.11,0,0,0-.74.83,3.71,3.71,0,0,0-.47,1.09Z" transform="translate(-351.09 -270.44)"/><path class="cls-1" d="M457.28,273.17a2,2,0,0,1,.63-1.48,2,2,0,0,1,1.5-.63,2.08,2.08,0,0,1,1.52.63,2,2,0,0,1,.63,1.5,2,2,0,0,1-.63,1.51,2,2,0,0,1-1.5.63,2.15,2.15,0,0,1-2.15-2.16Zm3.78,7.45v11.12a1.54,1.54,0,0,1-1.54,1.54h-.2a1.54,1.54,0,0,1-1.54-1.54V280.62a1.54,1.54,0,0,1,1.54-1.54h.2A1.54,1.54,0,0,1,461.06,280.62Z" transform="translate(-351.09 -270.44)"/><path class="cls-1" d="M479.38,282.31h0a1.59,1.59,0,0,1-1.82-.28,1.37,1.37,0,0,0-1-.4,1.08,1.08,0,0,0-.77.3,1,1,0,0,0-.32.76q0,.82,1.89,1.62a11.26,11.26,0,0,1,3.52,2.07,3.58,3.58,0,0,1,.9,2.55,4.48,4.48,0,0,1-1.51,3.45,5.2,5.2,0,0,1-3.56,1.31,5,5,0,0,1-4-1.78,1.57,1.57,0,0,1,.53-2.43h0a1.53,1.53,0,0,1,1.88.46,2.15,2.15,0,0,0,.24.26,2,2,0,0,0,1.43.56c1.11,0,1.66-.51,1.66-1.52,0-.58-.43-1.13-1.28-1.63-.33-.17-.66-.33-1-.48l-1-.48a6.34,6.34,0,0,1-2-1.4,3.45,3.45,0,0,1-.75-2.29,4.09,4.09,0,0,1,1.27-3.07,4.5,4.5,0,0,1,3.15-1.21,4,4,0,0,1,2.86,1.1A1.57,1.57,0,0,1,479.38,282.31Z" transform="translate(-351.09 -270.44)"/><rect class="cls-2" x="86.74" y="36.12" width="20.56" height="4.41" rx="2.2" ry="2.2"/><path class="cls-3" d="M396,305.4a2.68,2.68,0,0,1-2.43,1.62,2.7,2.7,0,0,1-2.26-1.19h0v0a3.75,3.75,0,0,1-.24-.44,8.13,8.13,0,0,0-7.12-4.17,8.17,8.17,0,0,0-6.81,3.62,14.14,14.14,0,0,0-2.83,8.7,14.63,14.63,0,0,0,1.52,6.61,13.46,13.46,0,0,1-5.1-13.37,11,11,0,0,1,.8-2.47l.08-.06c1.26-.93,12.81-9.09,19.09-1.85,0,0,1,1.1,1.81,2.19a2.79,2.79,0,0,0,2.59,1.12A2.87,2.87,0,0,0,396,305.4Z" transform="translate(-351.09 -270.44)"/><path class="cls-4" d="M395.87,315.52h0a13.57,13.57,0,0,1-3.3,4.14,13.46,13.46,0,0,1-16.8.46,14.83,14.83,0,0,1-1.52-6.62,14.14,14.14,0,0,1,2.83-8.7,8.11,8.11,0,0,0-1.39,4.64,8.2,8.2,0,0,0,15.25,4.11,2.67,2.67,0,0,1,2.71-2.06h.09a2.7,2.7,0,0,1,2.49,2.56A2.64,2.64,0,0,1,395.87,315.52Z" transform="translate(-351.09 -270.44)"/><path class="cls-4" d="M396.18,304.46a2.69,2.69,0,0,1-.22.94,2.87,2.87,0,0,1-.92.28,2.79,2.79,0,0,1-2.59-1.12c-.82-1.09-1.81-2.19-1.81-2.19-6.28-7.24-17.83.92-19.09,1.85l-.08.06c1.74-3.89,5.66-7.29,9.64-8.08a13.47,13.47,0,0,1,14.4,6.37A2.67,2.67,0,0,1,396.18,304.46Z" transform="translate(-351.09 -270.44)"/><path class="cls-3" d="M351.61,292.12a2.7,2.7,0,0,1,2.48-1.54,2.65,2.65,0,0,1,1.25.34,2.62,2.62,0,0,1,1,.93h0v0a2.35,2.35,0,0,1,.22.45,8.2,8.2,0,0,0,13.91,1,14.16,14.16,0,0,0,3.11-8.6,14.76,14.76,0,0,0-1.3-6.67,13.5,13.5,0,0,1,4.66,13.54,11.16,11.16,0,0,1-.88,2.44l-.08.06c-1.29.88-13.11,8.67-19.15,1.23,0,0-.95-1.13-1.73-2.26a2.79,2.79,0,0,0-2.56-1.2A2.87,2.87,0,0,0,351.61,292.12Z" transform="translate(-351.09 -270.44)"/><path class="cls-4" d="M352,282h0a13.47,13.47,0,0,1,20.24-3.95,14.79,14.79,0,0,1,1.3,6.67,14.16,14.16,0,0,1-3.11,8.6,8.2,8.2,0,1,0-13.36-9.51,3.7,3.7,0,0,0-.33.66,2.65,2.65,0,0,1-2.65,1.62h-.05a2.68,2.68,0,0,1-2.36-2A2.71,2.71,0,0,1,352,282Z" transform="translate(-351.09 -270.44)"/><path class="cls-4" d="M351.36,293.05a2.47,2.47,0,0,1,.25-.93,2.87,2.87,0,0,1,.92-.25,2.79,2.79,0,0,1,2.56,1.2c.78,1.13,1.73,2.26,1.73,2.26,6,7.44,17.86-.35,19.15-1.23l.08-.06c-1.87,3.83-5.89,7.1-9.9,7.77A13.52,13.52,0,0,1,352,295,2.69,2.69,0,0,1,351.36,293.05Z" transform="translate(-351.09 -270.44)"/><rect class="cls-4" x="0.1" y="12.18" width="5.68" height="40" rx="2.68" ry="2.68"/><rect class="cls-2" x="400.49" y="295.86" width="4.82" height="27.06" rx="2.41" ry="2.41" transform="matrix(0.93, -0.36, 0.36, 0.93, -434.9, -106.51)"/><rect class="cls-2" x="416.43" y="295.65" width="4.82" height="27.06" rx="2.41" ry="2.41" transform="translate(-433.78 -100.84) rotate(-20.88)"/><path class="cls-2" d="M459.43,315.52h0a13.57,13.57,0,0,1-3.3,4.14,13.46,13.46,0,0,1-16.8.46,14.83,14.83,0,0,1-1.52-6.62,14.14,14.14,0,0,1,2.83-8.7,8.2,8.2,0,0,0,5.46,12.66,8.16,8.16,0,0,0,6.64-1.83,9.55,9.55,0,0,0,2-2.75,2.66,2.66,0,0,1,2.45-1.39h.15a2.62,2.62,0,0,1,2.21,1.57A2.75,2.75,0,0,1,459.43,315.52Z" transform="translate(-351.09 -270.44)"/><path class="cls-2" d="M459.74,304.46a1.72,1.72,0,0,1-.22.94,2.87,2.87,0,0,1-.92.28,2.79,2.79,0,0,1-2.59-1.12c-.82-1.09-1.81-2.19-1.81-2.19-6.28-7.24-17.83.92-19.09,1.85l-.08.06c1.74-3.89,5.66-7.29,9.64-8.08a13.47,13.47,0,0,1,14.4,6.37A6.19,6.19,0,0,1,459.74,304.46Z" transform="translate(-351.09 -270.44)"/><path class="cls-2" d="M459.74,304.37s-.3,3.79-2,5.93l-2.31-1,2.72-5.66Z" transform="translate(-351.09 -270.44)"/><path class="cls-2" d="M457.33,310.64s4.38-1.95,1.86-8" transform="translate(-351.09 -270.44)"/><path class="cls-5" d="M459.85,305.09a3.49,3.49,0,0,1-2.76,1.93,2.7,2.7,0,0,1-2.26-1.19h0v0a2.64,2.64,0,0,1-.23-.44,8.16,8.16,0,0,0-7.13-4.17,8.17,8.17,0,0,0-6.81,3.62,14.14,14.14,0,0,0-2.83,8.7,14.63,14.63,0,0,0,1.52,6.61,13.46,13.46,0,0,1-5.1-13.37,11,11,0,0,1,.8-2.47l.08-.06c1.26-.93,12.81-9.09,19.09-1.85,0,0,1,1.1,1.81,2.19a2.79,2.79,0,0,0,2.59,1.12A5.66,5.66,0,0,0,459.85,305.09Z" transform="translate(-351.09 -270.44)"/><path class="cls-5" d="M415,306.21s.88-4.08,4.34-2.4l-2.35-6.2s-.1-.49-1-1h-.07a1.63,1.63,0,0,0-.19-.09,2.41,2.41,0,0,0-3.12,1.41l-7.94,21a2.45,2.45,0,0,0,1.4,3.15,2.41,2.41,0,0,0,3.12-1.41Z" transform="translate(-351.09 -270.44)"/><path class="cls-5" d="M422.54,312.2s-.88,4.08-4.34,2.4l2.35,6.2s.1.49,1,1h.08l.18.09a2.4,2.4,0,0,0,3.12-1.41l7.94-21a2.45,2.45,0,0,0-1.4-3.15,2.41,2.41,0,0,0-3.12,1.41Z" transform="translate(-351.09 -270.44)"/><path class="cls-4" d="M352,282.12a5.1,5.1,0,0,0-.77,2.79c0,1.71,2,.71,2,.71l-1.16-3.5" transform="translate(-351.09 -270.44)"/><path class="cls-2" d="M357.38,283.45" transform="translate(-351.09 -270.44)"/><path class="cls-4" d="M357.31,283.53a2.58,2.58,0,0,0-.45,2.06l-.67-1Z" transform="translate(-351.09 -270.44)"/><path class="cls-6" d="M464.7,306.69a2.65,2.65,0,0,0,3.67,1.18,2.67,2.67,0,0,0,.95-.91h0l0,0a3.55,3.55,0,0,0,.21-.44,8,8,0,0,1,6.86-4.32,8.63,8.63,0,0,1,1.69.12,8.08,8.08,0,0,1,5.09,3.22,13.85,13.85,0,0,1,3.06,8.43,14.33,14.33,0,0,1-1.28,6.54,13.22,13.22,0,0,0,4.57-13.28,10.63,10.63,0,0,0-.86-2.4l-.08-.05c-1.27-.87-12.86-8.5-18.78-1.2,0,0-.93,1.1-1.7,2.21a2.75,2.75,0,0,1-2.51,1.17A2.79,2.79,0,0,1,464.7,306.69Z" transform="translate(-351.09 -270.44)"/><path class="cls-2" d="M465.12,316.62h0a13.35,13.35,0,0,0,3.36,4,13.22,13.22,0,0,0,16.49-.1,14.33,14.33,0,0,0,1.28-6.54,13.85,13.85,0,0,0-3.06-8.43,8,8,0,1,1-13.1,9.33,3.27,3.27,0,0,1-.32-.65,2.66,2.66,0,0,0-2.61-1.6h0a2.64,2.64,0,0,0-2.32,1.92A2.69,2.69,0,0,0,465.12,316.62Z" transform="translate(-351.09 -270.44)"/><path class="cls-2" d="M464.46,305.78a2.55,2.55,0,0,0,.24.91,2.79,2.79,0,0,0,.91.24,2.75,2.75,0,0,0,2.51-1.17c.77-1.11,1.7-2.21,1.7-2.21,5.92-7.3,17.51.33,18.78,1.2l.08.05c-1.84-3.75-5.78-7-9.71-7.61a13.24,13.24,0,0,0-13.92,6.71A2.58,2.58,0,0,0,464.46,305.78Z" transform="translate(-351.09 -270.44)"/><rect class="cls-2" x="113.2" width="5.57" height="45.57" rx="2.78" ry="2.78"/><path class="cls-2" d="M465.05,316.5a5,5,0,0,1-.76-2.73c0-1.68,2-.7,2-.7l-1.13,3.43" transform="translate(-351.09 -270.44)"/><path class="cls-2" d="M470.23,315.56" transform="translate(-351.09 -270.44)"/><path class="cls-2" d="M470.3,315.12a2.51,2.51,0,0,1-.44-2l-.67.95Z" transform="translate(-351.09 -270.44)"/></svg>