<svg id="Capa_1" data-name="Capa 1" xmlns="http://www.w3.org/2000/svg" viewBox="0 0 430 512"><defs><style>.cls-1{fill:#f7a615;}</style></defs><title>mailbox</title><path class="cls-1" d="M364,145H319V111h97a15,15,0,0,0,12.86-22.72L409.44,55.91,429,22.58A15,15,0,0,0,416,0H304a15,15,0,0,0-15,15V145H148A107.12,107.12,0,0,0,41,252V416a15,15,0,0,0,15,15H225v66a15,15,0,0,0,30,0V431h34v66a15,15,0,0,0,30,0V431H456a15,15,0,0,0,15-15V252A107.12,107.12,0,0,0,364,145ZM319,30h70.84L379.05,48.42a15,15,0,0,0,.09,15.3L389.51,81H319ZM71,252a77,77,0,0,1,154,0V401H71ZM441,401H255V252a106.72,106.72,0,0,0-32.78-77H289v41a15,15,0,0,0,30,0V175h45a77.08,77.08,0,0,1,77,77Z" transform="translate(-41 0)"/></svg>